<?xml version="1.0" encoding="iso-8859-1"?>
<!-- Uploaded to: SVG Repo, www.svgrepo.com, Generator: SVG Repo Mixer Tools -->
<svg fill="#000000" height="800px" width="800px" version="1.1" id="Layer_1" xmlns="http://www.w3.org/2000/svg" xmlns:xlink="http://www.w3.org/1999/xlink" 
	 viewBox="0 0 314.722 314.722" xml:space="preserve">
<g>
	<g>
		<g>
			<path d="M15.798,200.155c0.64,0.612,1.456,0.912,2.276,0.912c0.868,0,1.732-0.34,2.376-1.012c1.256-1.312,1.208-3.396-0.1-4.652
				c-4.316-4.132-7.924-8.472-10.724-12.9c-0.964-1.532-2.988-2-4.536-1.024c-1.532,0.972-1.992,3.004-1.02,4.536
				C7.15,190.899,11.098,195.655,15.798,200.155z"/>
			<path d="M32.342,205.123c-1.5-1.036-3.548-0.664-4.58,0.824c-1.036,1.492-0.664,3.54,0.824,4.58
				c26.812,18.612,67.336,30.564,111.184,32.792c0.06,0.004,0.116,0.004,0.172,0.004c1.736,0,3.192-1.364,3.28-3.12
				c0.092-1.816-1.304-3.36-3.116-3.452C97.45,234.587,58.17,223.055,32.342,205.123z"/>
			<path d="M273.778,101.215c-1.564-0.928-3.58-0.408-4.504,1.156c-0.924,1.564-0.404,3.58,1.16,4.504
				c24.316,14.384,37.704,32.692,37.704,51.552c0,31.172-36.04,59.472-91.82,72.108c-1.772,0.4-2.88,2.164-2.484,3.936
				c0.348,1.524,1.704,2.564,3.204,2.564c0.24,0,0.484-0.028,0.732-0.084c58.896-13.336,96.952-44.156,96.952-78.52
				C314.718,137.147,300.174,116.831,273.778,101.215z"/>
			<path d="M134.07,75.831c0.076,0,0.16-0.004,0.236-0.008c6.856-0.488,13.88-0.732,20.88-0.732c1.82,0,3.292-1.472,3.292-3.288
				c0-1.82-1.472-3.288-3.292-3.288c-7.152,0-14.332,0.252-21.34,0.748c-1.812,0.128-3.176,1.7-3.048,3.516
				C130.914,74.507,132.362,75.831,134.07,75.831z"/>
			<path d="M6.274,135.871c12.804-27.852,53.94-50.008,107.364-57.816c1.8-0.264,3.04-1.932,2.776-3.732
				c-0.264-1.796-1.904-3.032-3.728-2.776c-55.596,8.128-98.66,31.72-112.384,61.58c-0.76,1.648-0.036,3.604,1.612,4.36
				c0.444,0.204,0.912,0.3,1.372,0.3C4.53,137.791,5.722,137.075,6.274,135.871z"/>
			<path d="M277.21,158.431c0-1.82-1.472-3.288-3.292-3.288s-3.292,1.472-3.292,3.288c0,32.544-51.788,59.02-115.444,59.02
				c-63.652,0-115.444-26.476-115.444-59.02c0-32.544,51.788-59.02,115.444-59.02c1.82,0,3.292-1.472,3.292-3.288
				s-1.472-3.284-3.292-3.284c-67.284,0-122.024,29.424-122.024,65.592c0,36.168,54.74,65.592,122.024,65.592
				S277.21,194.603,277.21,158.431z"/>
			<path d="M191.782,202.371c1.768-0.424,2.852-2.204,2.42-3.968c-0.424-1.764-2.224-2.848-3.968-2.42
				c-11.008,2.664-22.796,4.02-35.048,4.02c-1.82,0-3.292,1.472-3.292,3.288c0,1.816,1.472,3.288,3.292,3.288
				C167.954,206.579,180.27,205.163,191.782,202.371z"/>
			<path d="M112.446,116.127c-7.308,1.84-13.672,4.396-18.736,7.5c-0.96,0.5-1.972,0.96-2.896,1.484
				c-0.616,0.348-1.016,0.888-1.296,1.48c-5.436,4.372-8.596,9.528-8.596,15.124c0,16.156,25.908,28.812,58.984,28.812
				c33.072,0,58.98-12.656,58.98-28.812c0-9.924-9.796-18.508-24.996-23.672c35.88,4.42,63.488,21.104,63.488,40.388
				c0,10.832-8.44,21.152-23.764,29.06c-1.612,0.836-2.248,2.82-1.416,4.432c0.584,1.132,1.736,1.78,2.928,1.78
				c0.508,0,1.02-0.116,1.504-0.368c17.62-9.092,27.324-21.488,27.324-34.904c0-26.996-38.996-48.148-88.772-48.148
				C139.914,110.287,125.338,112.315,112.446,116.127z M192.306,141.715c0,8.188-12.264,16.8-31.976,20.436l29.192-27.244
				C191.306,137.135,192.306,139.439,192.306,141.715z M137.062,156.819c0.452,0.488,1.068,0.732,1.68,0.732
				c0.564,0,1.128-0.208,1.572-0.62l34.084-31.812c4.888,1.876,8.888,4.108,11.864,6.524l-33.428,31.2
				c-0.132,0.124-0.208,0.28-0.304,0.424c-3.992,0.424-8.192,0.676-12.624,0.676c-10.024,0-18.976-1.184-26.54-3.136l32.752-30.568
				c0.928-0.868,0.98-2.324,0.108-3.256c-0.868-0.936-2.324-0.98-3.256-0.116l-34.732,32.416
				c-13.008-4.34-20.736-11.088-20.736-17.58c0-4.088,3.064-8.28,8.572-11.912c6.144-3.252,13.192-5.944,20.868-8.016
				c1.824-0.388,3.704-0.74,5.664-1.036l-28.948,27.016c-0.928,0.868-0.98,2.324-0.108,3.256c0.456,0.488,1.068,0.732,1.68,0.732
				c0.564,0,1.128-0.204,1.572-0.62l33.488-31.256c3.088-0.244,6.276-0.4,9.612-0.4c11.38,0,21.38,1.528,29.532,3.972
				l-32.264,30.116C136.242,154.435,136.19,155.891,137.062,156.819z"/>
			<path d="M154.754,261.031c-6.856,0.488-13.88,0.736-20.876,0.736c-1.816,0-3.288,1.472-3.288,3.288
				c0,1.816,1.472,3.284,3.288,3.284c7.148,0,14.328-0.252,21.34-0.748c1.812-0.128,3.176-1.7,3.048-3.516
				C158.138,262.267,156.546,260.923,154.754,261.031z"/>
			<path d="M21.59,77.623c0.516,0,1.036-0.12,1.528-0.38c10.02-5.276,21.128-9.464,33.008-12.448
				c1.764-0.444,2.828-2.228,2.388-3.992c-0.444-1.764-2.256-2.808-3.992-2.388c-12.388,3.112-23.984,7.492-34.468,13.008
				c-1.608,0.844-2.228,2.832-1.376,4.44C19.266,76.983,20.406,77.623,21.59,77.623z"/>
			<path d="M20.978,236.659c-6.612,0-11.992,5.376-11.992,11.988s5.38,11.988,11.992,11.988s11.992-5.376,11.992-11.988
				S27.59,236.659,20.978,236.659z M20.978,254.059c-2.988,0-5.412-2.428-5.412-5.412c0-2.984,2.424-5.412,5.412-5.412
				c2.988,0,5.412,2.428,5.412,5.412C26.39,251.631,23.966,254.059,20.978,254.059z"/>
			<path d="M215.898,70.359c6.612,0,11.992-5.376,11.992-11.988s-5.38-11.988-11.992-11.988s-11.992,5.376-11.992,11.988
				S209.286,70.359,215.898,70.359z M215.898,52.955c2.988,0,5.412,2.428,5.412,5.412s-2.424,5.412-5.412,5.412
				s-5.412-2.428-5.412-5.412S212.91,52.955,215.898,52.955z"/>
		</g>
	</g>
</g>
</svg>